:version 1.10
:name ASF
:units
  mass 1
  length 1
  angle deg
:documentation
  ASF file generated by Kaydara
:root
  axis xyz
  order  tx ty tz rx ry rz
  position 0 0 0
  orientation 0 0 0
:bonedata
  begin
    id 1
    name RightUpLegDummy
    direction -0.718183 -0.695806 0.00816078
    length 4.904
    axis 0 0 0 xyz
  end
  begin
    id 2
    name RightUpLeg
    direction -0.00334265 -0.999142 0.0412837
    length 17.4976
    axis -0.59612 0.00940841 -0.192072 xyz
    dof rx ry rz
  end
  begin
    id 3
    name RightLeg
    direction 0.000365068 -0.988824 -0.149089
    length 16.5821
    axis 6.58657 0.0604092 -0.318554 xyz
    dof rx ry rz
  end
  begin
    id 4
    name RightFoot
    direction 0.00079069 -0.460991 0.887405
    length 3.77069
    axis 0.000105557 -0.120464 -0.188919 xyz
    dof rx ry rz
  end
  begin
    id 5
    name RightToes
    direction 0.00124768 -0.014065 0.9999
    length 3.85082
    axis 0.00053932 0.542178 -0.142707 xyz
    dof rx ry rz
  end
  begin
    id 6
    name SpineDummy
    direction 8.3039e-015 1 4.58682e-016
    length 4.6813
    axis 0 0 0 xyz
  end
  begin
    id 7
    name Spine
    direction 4.12799e-006 0.999988 0.00494944
    length 10.1015
    axis -0.00149944 0.000129667 -0.000235877 xyz
    dof rx ry rz
  end
  begin
    id 8
    name Spine1
    direction 0 0 0
    length 0
    axis -0.00160567 0.000129431 -0.000308381 xyz
    dof rx ry rz
  end
  begin
    id 9
    name HEadDummy
    direction 5.38513e-006 0.999999 0.00127044
    length 3.43865
    axis -0.00160567 0.000129431 -0.000308381 xyz
  end
  begin
    id 10
    name HEad
    direction -0.0226495 0.980942 0.192974
    length 5.12695
    axis -0.00160642 -0.114462 -0.000307946 xyz
    dof rx ry rz
  end
  begin
    id 11
    name LeftShoulder1Dummy
    direction 0.99889 -0.0402564 -0.0244456
    length 3.5433
    axis -0.00160567 0.000129431 -0.000308381 xyz
  end
  begin
    id 12
    name LeftShoulder1
    direction 0.999464 -0.00142945 0.0326977
    length 4.05031
    axis 0.393425 -0.0796525 -0.0507861 xyz
    dof rx ry rz
  end
  begin
    id 13
    name LeftArm
    direction 0.998564 -0.000899612 -0.053557
    length 10.3537
    axis -22.9476 0.126974 0.960871 xyz
    dof rx ry rz
  end
  begin
    id 14
    name LeftForeArm
    direction 0.998903 0.00865904 0.0460121
    length 8.70632
    axis -9.91856 -0.0656997 -0.178106 xyz
    dof rx ry rz
  end
  begin
    id 15
    name LeftHand
    direction 0.992938 -0.0411687 0.11126
    length 5.32135
    axis -0.00981066 -0.00340928 0.18486 xyz
    dof rx ry rz
  end
  begin
    id 16
    name RightShoulderDummy
    direction -0.998891 -0.0402456 -0.0244411
    length 3.5433
    axis -0.00160567 0.000129431 -0.000308381 xyz
  end
  begin
    id 17
    name RightShoulder
    direction -0.999353 -0.00388479 0.0357579
    length 4.05031
    axis 1.48787 0.256014 0.157284 xyz
    dof rx ry rz
  end
  begin
    id 18
    name RightArm
    direction -0.998583 -0.000660455 -0.0532032
    length 10.3947
    axis -22.4211 -0.109147 -0.943573 xyz
    dof rx ry rz
  end
  begin
    id 19
    name RightForeArm
    direction -0.998898 0.00868588 0.0461311
    length 8.68355
    axis -9.92343 0.0658342 0.178556 xyz
    dof rx ry rz
  end
  begin
    id 20
    name RightHand
    direction -0.992843 -0.0414545 0.112004
    length 5.28593
    axis -0.00982288 0.00332907 -0.185539 xyz
    dof rx ry rz
  end
  begin
    id 21
    name LeftUpLegDummy
    direction 0.718183 -0.695806 0.00816078
    length 4.904
    axis 0 0 0 xyz
  end
  begin
    id 22
    name LeftUpLeg
    direction 0.00445374 -0.999139 0.0412407
    length 17.4976
    axis -0.593655 -0.0138231 0.255969 xyz
    dof rx ry rz
  end
  begin
    id 23
    name LeftLeg
    direction -0.00154847 -0.988829 -0.149046
    length 16.5821
    axis 6.5841 -0.0555156 0.250722 xyz
    dof rx ry rz
  end
  begin
    id 24
    name LeftFoot
    direction -0.00417678 -0.460985 0.887398
    length 3.77069
    axis 5.53694e-005 4.88088e-005 -0.000136194 xyz
    dof rx ry rz
  end
  begin
    id 25
    name LeftToes
    direction 0.00818061 -0.00485256 0.999955
    length 3.85048
    axis 6.41179e-005 4.88477e-005 -0.000136145 xyz
    dof rx ry rz
  end
:hierarchy
  begin
    root RightUpLegDummy SpineDummy LeftUpLegDummy
    RightUpLegDummy RightUpLeg
    RightUpLeg RightLeg
    RightLeg RightFoot
    RightFoot RightToes
    SpineDummy Spine
    Spine Spine1
    Spine1 HEadDummy LeftShoulder1Dummy RightShoulderDummy
    HEadDummy HEad
    LeftShoulder1Dummy LeftShoulder1
    LeftShoulder1 LeftArm
    LeftArm LeftForeArm
    LeftForeArm LeftHand
    RightShoulderDummy RightShoulder
    RightShoulder RightArm
    RightArm RightForeArm
    RightForeArm RightHand
    LeftUpLegDummy LeftUpLeg
    LeftUpLeg LeftLeg
    LeftLeg LeftFoot
    LeftFoot LeftToes
  end

:SAMPLES-PER-SECOND 30
:FULLY-SPECIFIED
:DEGREES
45
root  -78.5595 40.4209 -0.556683 -42.2876 88.5024 -44.0504
RightUpLeg  -2.59738 2.6203 3.37091
RightLeg  0.65978 7.02936 0.215809
RightFoot  -1.19141 0.343986 -3.35475
RightToes  -6.40286e-010 -1.59028e-015 9.93923e-017
Spine  -13.0817 -0.327596 1.65795
Spine1  13.0918 -0.23238 -1.41966
HEad  -6.78768 1.52311 -0.666521
LeftShoulder1  9.93923e-017 0 1.22299e-017
LeftArm  17.4344 42.9783 -80.1033
LeftForeArm  -34.9439 -19.821 2.66021
LeftHand  0.990564 7.02686 -3.1967
RightShoulder  1.98785e-016 -4.96962e-017 1.55301e-017
RightArm  20.5436 -46.5651 86.0607
RightForeArm  -45.4024 19.6004 -11.317
RightHand  1.11287 -10.4979 -3.97882
LeftUpLeg  -3.55955 -0.244658 -0.886953
LeftLeg  1.71369 -7.03738 -0.33236
LeftFoot  -0.921404 -0.113848 1.04822
LeftToes  8.73142e-011 -6.07963e-011 6.03181e-012
46
root  -78.5608 40.42 -0.563429 -41.8682 88.4749 -43.6203
RightUpLeg  -2.58267 2.61113 3.36464
RightLeg  0.644003 7.06244 0.230048
RightFoot  -1.19187 0.340801 -3.32117
RightToes  -6.40286e-010 -1.59028e-015 9.93923e-017
Spine  -13.0136 -0.286485 1.63014
Spine1  13.0786 -0.212242 -1.33082
HEad  -6.7063 1.33478 -0.639964
LeftShoulder1  9.93923e-017 0 1.22299e-017
LeftArm  17.4819 42.9731 -80.2863
LeftForeArm  -34.3633 -19.7757 2.61257
LeftHand  0.963315 6.76499 -3.90603
RightShoulder  1.98785e-016 -4.96962e-017 1.55301e-017
RightArm  20.7325 -46.6641 86.041
RightForeArm  -45.5917 19.6332 -11.5515
RightHand  1.09365 -10.3615 -3.92987
LeftUpLeg  -3.54928 -0.235265 -0.881116
LeftLeg  1.72097 -7.02655 -0.339868
LeftFoot  -0.929659 -0.116055 1.07013
LeftToes  8.73142e-011 -6.07963e-011 6.03181e-012
47
root  -78.5631 40.4191 -0.568615 -41.3982 88.4408 -43.1364
RightUpLeg  -2.57133 2.62942 3.37633
RightLeg  0.635172 7.07689 0.220183
RightFoot  -1.18806 0.337291 -3.28414
RightToes  -6.40286e-010 -1.59028e-015 9.93923e-017
Spine  -12.9454 -0.262117 1.66169
Spine1  13.079 -0.189856 -1.33708
HEad  -6.69108 1.17445 -0.575453
LeftShoulder1  9.93923e-017 0 1.22299e-017
LeftArm  17.6831 43.032 -80.4495
LeftForeArm  -34.1119 -19.8159 2.68651
LeftHand  0.941016 6.52732 -4.48918
RightShoulder  1.98785e-016 -4.96962e-017 1.55301e-017
RightArm  21.0287 -46.7025 86.0659
RightForeArm  -46.071 19.6761 -11.744
RightHand  1.07876 -10.3295 -3.65712
LeftUpLeg  -3.54931 -0.21388 -0.868184
LeftLeg  1.7535 -7.01899 -0.346181
LeftFoot  -0.956922 -0.116104 1.07061
LeftToes  8.73142e-011 -6.07963e-011 6.03181e-012
48
root  -78.5642 40.4181 -0.57572 -41.7824 88.4358 -43.5036
RightUpLeg  -2.53968 2.64108 3.38458
RightLeg  0.603755 7.06409 0.205843
RightFoot  -1.15548 0.337434 -3.28565
RightToes  -6.40286e-010 -1.59028e-015 9.93923e-017
Spine  -12.901 -0.268265 1.69559
Spine1  13.115 -0.198778 -1.34064
HEad  -6.7289 1.12288 -0.568882
LeftShoulder1  9.93923e-017 0 1.22299e-017
LeftArm  18.1739 43.131 -80.6053
LeftForeArm  -34.6414 -19.9807 2.9022
LeftHand  0.936123 6.48214 -4.52447
RightShoulder  1.98785e-016 -4.96962e-017 1.55301e-017
RightArm  21.1497 -46.6879 86.0947
RightForeArm  -46.4146 19.6956 -11.7767
RightHand  1.06755 -10.3702 -3.35112
LeftUpLeg  -3.538 -0.205843 -0.867199
LeftLeg  1.76282 -7.02322 -0.346347
LeftFoot  -0.967689 -0.115513 1.06475
LeftToes  8.73142e-011 -6.07963e-011 6.03181e-012
49
root  -78.5629 40.4169 -0.584977 -42.4436 88.4483 -44.1745
RightUpLeg  -2.5292 2.63038 3.37436
RightLeg  0.570855 7.05136 0.208049
RightFoot  -1.13657 0.338712 -3.29913
RightToes  -6.40286e-010 -1.59028e-015 9.93923e-017
Spine  -12.9085 -0.284927 1.71085
Spine1  13.1696 -0.225395 -1.31261
HEad  -6.77382 1.18174 -0.612602
LeftShoulder1  9.93923e-017 0 1.22299e-017
LeftArm  18.587 43.2434 -80.7019
LeftForeArm  -35.1173 -20.1276 3.10543
LeftHand  0.938404 6.52062 -4.4557
RightShoulder  1.98785e-016 -4.96962e-017 1.55301e-017
RightArm  21.1907 -46.6687 86.1244
RightForeArm  -46.4696 19.6954 -11.725
RightHand  1.06645 -10.3674 -3.27314
LeftUpLeg  -3.54015 -0.212249 -0.877545
LeftLeg  1.74547 -7.03274 -0.350602
LeftFoot  -0.95225 -0.117753 1.08698
LeftToes  8.73142e-011 -6.07963e-011 6.03181e-012
50
root  -78.5605 40.4157 -0.593389 -42.1444 88.4463 -43.9114
RightUpLeg  -2.56932 2.61723 3.35162
RightLeg  0.575946 7.06964 0.214835
RightFoot  -1.15644 0.335736 -3.26773
RightToes  -6.40286e-010 -1.59028e-015 9.93923e-017
Spine  -12.924 -0.283547 1.69998
Spine1  13.1888 -0.236193 -1.26542
HEad  -6.84179 1.32104 -0.600077
LeftShoulder1  9.93923e-017 0 1.22299e-017
LeftArm  18.4487 43.3258 -80.7212
LeftForeArm  -34.6761 -20.0908 3.09004
LeftHand  0.939568 6.49781 -4.73949
RightShoulder  1.98785e-016 -4.96962e-017 1.55301e-017
RightArm  21.4221 -46.671 86.1557
RightForeArm  -46.5391 19.7054 -11.7326
RightHand  1.07391 -10.3324 -3.46927
LeftUpLeg  -3.57551 -0.210898 -0.886701
LeftLeg  1.75073 -7.03184 -0.37488
LeftFoot  -0.944424 -0.122455 1.13365
LeftToes  8.73142e-011 -6.07963e-011 6.03181e-012
51
root  -78.5586 40.4144 -0.599623 -41.2235 88.4337 -43.0097
RightUpLeg  -2.59998 2.61107 3.33079
RightLeg  0.591989 7.10849 0.211708
RightFoot  -1.15906 0.331891 -3.22718
RightToes  -6.40286e-010 -1.59028e-015 9.93923e-017
Spine  -12.8962 -0.263979 1.64557
Spine1  13.1793 -0.235902 -1.16715
HEad  -6.95509 1.45365 -0.535647
LeftShoulder1  9.93923e-017 0 1.22299e-017
LeftArm  18.0779 43.3463 -80.7675
LeftForeArm  -34.0733 -19.9699 2.93802
LeftHand  0.939681 6.48118 -5.0638
RightShoulder  1.98785e-016 -4.96962e-017 1.55301e-017
RightArm  21.7747 -46.6922 86.1574
RightForeArm  -46.7361 19.7286 -11.8177
RightHand  1.08778 -10.348 -3.81493
LeftUpLeg  -3.59655 -0.197557 -0.891928
LeftLeg  1.77089 -7.01948 -0.407726
LeftFoot  -0.956233 -0.125036 1.15927
LeftToes  8.73142e-011 -6.07963e-011 6.03181e-012
52
root  -78.5562 40.413 -0.60606 -40.7534 88.4297 -42.5344
RightUpLeg  -2.58798 2.59258 3.31076
RightLeg  0.585455 7.14552 0.215765
RightFoot  -1.13222 0.334452 -3.2542
RightToes  -6.40286e-010 -1.59028e-015 9.93923e-017
Spine  -12.8545 -0.242227 1.60462
Spine1  13.1978 -0.235114 -1.06492
HEad  -7.05766 1.44966 -0.516587
LeftShoulder1  9.93923e-017 0 1.22299e-017
LeftArm  18.2831 43.334 -80.9115
LeftForeArm  -34.7518 -20.0348 2.96621
LeftHand  0.952185 6.62032 -4.84717
RightShoulder  1.98785e-016 -4.96962e-017 1.55301e-017
RightArm  21.9638 -46.7248 86.1409
RightForeArm  -46.7883 19.7414 -11.9062
RightHand  1.10997 -10.4098 -4.21441
LeftUpLeg  -3.57145 -0.200871 -0.90601
LeftLeg  1.74593 -6.99567 -0.416543
LeftFoot  -0.956167 -0.124537 1.15431
LeftToes  8.73142e-011 -6.07963e-011 6.03181e-012
53
root  -78.5543 40.4113 -0.614551 -40.0615 88.4218 -41.8566
RightUpLeg  -2.61576 2.5542 3.27302
RightLeg  0.61653 7.20289 0.241877
RightFoot  -1.16039 0.338877 -3.30086
RightToes  -6.40286e-010 -1.59028e-015 9.93923e-017
Spine  -12.8409 -0.213875 1.66794
Spine1  13.2363 -0.202942 -1.10256
HEad  -7.07608 1.2566 -0.526012
LeftShoulder1  9.93923e-017 0 1.22299e-017
LeftArm  18.9636 43.3238 -81.0269
LeftForeArm  -36.3722 -20.2684 3.20082
LeftHand  0.974795 6.86845 -4.12933
RightShoulder  1.98785e-016 -4.96962e-017 1.55301e-017
RightArm  21.9797 -46.756 86.1781
RightForeArm  -46.6325 19.7414 -11.9765
RightHand  1.13062 -10.4701 -4.56438
LeftUpLeg  -3.56163 -0.236221 -0.940092
LeftLeg  1.70522 -6.94098 -0.396331
LeftFoot  -0.943776 -0.12578 1.16664
LeftToes  8.73142e-011 -6.07963e-011 6.03181e-012
54
root  -78.5544 40.4077 -0.623973 -38.1827 88.3996 -40.0087
RightUpLeg  -2.71366 2.50417 3.20559
RightLeg  0.731058 7.31561 0.277945
RightFoot  -1.24816 0.334965 -3.25961
RightToes  -6.40286e-010 -1.59028e-015 9.93923e-017
Spine  -12.8242 -0.172206 1.78402
Spine1  13.2457 -0.130832 -1.26364
HEad  -7.03679 0.99138 -0.46104
LeftShoulder1  9.93923e-017 0 1.22299e-017
LeftArm  19.0788 43.2773 -80.9483
LeftForeArm  -36.9627 -20.3258 3.25673
LeftHand  0.990575 7.02495 -3.56976
RightShoulder  1.98785e-016 -4.96962e-017 1.55301e-017
RightArm  21.9719 -46.7582 86.2697
RightForeArm  -46.4846 19.7403 -12.016
RightHand  1.14006 -10.5085 -4.68168
LeftUpLeg  -3.6085 -0.269936 -0.983553
LeftLeg  1.752 -6.86569 -0.386184
LeftFoot  -0.978405 -0.129548 1.20404
LeftToes  8.73142e-011 -6.07963e-011 6.03181e-012
